<svg xmlns="http://www.w3.org/2000/svg" aria-hidden="true" focusable="false">
  <symbol id="6be74c" viewBox="0 0 20 20"><path d="M9.335 16.5v-5.835H3.5a.665.665 0 1 1 0-1.33h5.835V3.5a.665.665 0 0 1 1.33 0v5.835H16.5l.134.014a.665.665 0 0 1 0 1.302l-.134.014h-5.835V16.5a.665.665 0 1 1-1.33 0"/></symbol>
  <symbol id="127a53" viewBox="0 0 20 20"><path d="M16.585 10a6.585 6.585 0 1 0-13.17 0 6.585 6.585 0 0 0 13.17 0m1.33 0a7.915 7.915 0 1 1-15.83 0 7.915 7.915 0 0 1 15.83 0"/><path d="M10 8.5a1.5 1.5 0 0 1 0 3c-1.5 0-5-1-5-1.5s3.5-1.5 5-1.5M12.083.005a.665.665 0 0 1 0 1.33H7.916a.665.665 0 0 1 0-1.33z"/></symbol>
  <symbol id="23ce94" viewBox="0 0 16 16"><path d="M11.115 3.915a.7.7 0 0 1 .97.97l-.09.11L8.99 8l3.005 3.005.09.11a.7.7 0 0 1-.97.97l-.11-.09L8 8.99l-3.005 3.005a.7.7 0 0 1-.99-.99L7.01 8 4.005 4.995l-.09-.11a.7.7 0 0 1 .97-.97l.11.09L8 7.01l3.005-3.005z"/></symbol>
  <symbol id="ba3792" viewBox="0 0 16 16"><path d="M12.134 5.944a.666.666 0 0 1 .922.922l-.085.105-4.5 4.5a.666.666 0 0 1-.942 0l-4.5-4.5-.085-.105a.666.666 0 0 1 .922-.922l.105.085L8 10.06l4.03-4.03z"/></symbol>
  <symbol id="29f921" viewBox="0 0 20 20"><path d="M15.78 10.196a.665.665 0 0 1 .449.827l-.08.25a6.5 6.5 0 0 1-5.485 4.357l.001 1.205h1.418l.134.014a.665.665 0 0 1 0 1.302l-.134.014H7.916a.665.665 0 0 1 0-1.33h1.42l-.002-1.205a6.5 6.5 0 0 1-5.484-4.357l-.08-.25-.026-.132a.665.665 0 0 1 1.25-.371l.051.124.064.198a5.17 5.17 0 0 0 9.844-.198l.052-.124a.664.664 0 0 1 .776-.324m-3.529-4.779a2.252 2.252 0 1 0-4.503 0v3.75a2.252 2.252 0 0 0 4.503 0zm1.33 3.75a3.581 3.581 0 0 1-7.163 0v-3.75a3.582 3.582 0 0 1 7.163 0z"/></symbol>
  <symbol id="01bab7" viewBox="0 0 20 20"><path d="M9 16V6.414L5.707 9.707a1 1 0 1 1-1.414-1.414l5-5 .076-.068a1 1 0 0 1 1.338.068l5 5 .068.076a1 1 0 0 1-1.406 1.406l-.076-.068L11 6.414V16a1 1 0 1 1-2 0"/></symbol>
  <symbol id="55180d" viewBox="0 0 20 20"><path d="M11.248 18.25q-.825 0-1.568-.314a4.3 4.3 0 0 1-1.32-.874 4 4 0 0 1-1.304.214 4 4 0 0 1-2.046-.544 4.27 4.27 0 0 1-1.518-1.485 4 4 0 0 1-.56-2.095q0-.48.131-1.04A4.4 4.4 0 0 1 2.04 10.71a4.07 4.07 0 0 1 .017-3.4 4.2 4.2 0 0 1 1.056-1.418 3.8 3.8 0 0 1 1.6-.842 3.9 3.9 0 0 1 .76-1.683q.593-.759 1.451-1.188a4.04 4.04 0 0 1 1.832-.429q.825 0 1.567.313.742.314 1.32.875a4 4 0 0 1 1.304-.215q1.106 0 2.046.545a4.14 4.14 0 0 1 1.501 1.485q.578.941.578 2.095 0 .48-.132 1.04.66.61 1.023 1.419.363.792.363 1.666 0 .892-.38 1.717a4.3 4.3 0 0 1-1.072 1.435 3.8 3.8 0 0 1-1.584.825 3.8 3.8 0 0 1-.775 1.683 4.06 4.06 0 0 1-1.436 1.188 4.04 4.04 0 0 1-1.832.429m-4.076-2.062q.825 0 1.435-.347l3.103-1.782a.36.36 0 0 0 .164-.313v-1.42L7.881 14.62a.67.67 0 0 1-.726 0l-3.118-1.798a.5.5 0 0 1-.017.115v.198q0 .841.396 1.551.413.693 1.139 1.089a3.2 3.2 0 0 0 1.617.412m.165-2.69a.4.4 0 0 0 .181.05q.083 0 .165-.05l1.238-.71-3.977-2.31a.7.7 0 0 1-.363-.643v-3.58q-.825.362-1.32 1.122a2.9 2.9 0 0 0-.495 1.65q0 .809.413 1.55.412.743 1.072 1.123zm3.91 3.663q.875 0 1.585-.396a2.96 2.96 0 0 0 1.534-2.64v-3.564a.32.32 0 0 0-.165-.297l-1.254-.726v4.604a.7.7 0 0 1-.363.643l-3.119 1.799a3 3 0 0 0 1.783.577m.627-6.039V8.878L10.01 7.822 8.129 8.878v2.244l1.881 1.056zM7.057 5.859a.7.7 0 0 1 .363-.644l3.119-1.798a3 3 0 0 0-1.782-.578q-.874 0-1.584.396A2.96 2.96 0 0 0 6.05 4.324a3.07 3.07 0 0 0-.396 1.551v3.547q0 .199.165.314l1.237.726zm8.383 7.887q.825-.364 1.303-1.123.495-.758.495-1.65a3.15 3.15 0 0 0-.412-1.55q-.413-.743-1.073-1.123l-3.086-1.782q-.099-.065-.181-.049a.3.3 0 0 0-.165.05l-1.238.692 3.993 2.327a.6.6 0 0 1 .264.264.64.64 0 0 1 .1.363zm-3.317-8.382a.63.63 0 0 1 .726 0l3.135 1.831v-.297q0-.792-.396-1.501a2.86 2.86 0 0 0-1.105-1.155q-.71-.43-1.65-.43-.825 0-1.436.347L8.294 5.941a.36.36 0 0 0-.165.314v1.418z"/></symbol>
  <symbol id="836f7a" viewBox="0 0 20 20"><path d="M6.835 4c-.451.004-.82.012-1.137.038-.386.032-.659.085-.876.162l-.2.086c-.44.224-.807.564-1.063.982l-.103.184c-.126.247-.206.562-.248 1.076-.043.523-.043 1.19-.043 2.135v2.664c0 .944 0 1.612.043 2.135.042.515.122.829.248 1.076l.103.184c.256.418.624.758 1.063.982l.2.086c.217.077.49.13.876.162.316.026.685.034 1.136.038zm11.33 7.327c0 .922 0 1.654-.048 2.243-.043.522-.125.977-.305 1.395l-.082.177a4 4 0 0 1-1.473 1.593l-.276.155c-.465.237-.974.338-1.57.387-.59.048-1.322.048-2.244.048H7.833c-.922 0-1.654 0-2.243-.048-.522-.042-.977-.126-1.395-.305l-.176-.082a4 4 0 0 1-1.594-1.473l-.154-.275c-.238-.466-.34-.975-.388-1.572-.048-.589-.048-1.32-.048-2.243V8.663c0-.922 0-1.654.048-2.243.049-.597.15-1.106.388-1.571l.154-.276a4 4 0 0 1 1.594-1.472l.176-.083c.418-.18.873-.263 1.395-.305.589-.048 1.32-.048 2.243-.048h4.334c.922 0 1.654 0 2.243.048.597.049 1.106.15 1.571.388l.276.154a4 4 0 0 1 1.473 1.594l.082.176c.18.418.262.873.305 1.395.048.589.048 1.32.048 2.243zm-10 4.668h4.002c.944 0 1.612 0 2.135-.043.514-.042.829-.122 1.076-.248l.184-.103c.418-.256.758-.624.982-1.063l.086-.2c.077-.217.13-.49.16-.876.043-.523.043-1.19.043-2.135V8.663c0-.944 0-1.612-.043-2.135-.032-.386-.085-.659-.162-.876l-.086-.2a2.67 2.67 0 0 0-.982-1.063l-.184-.103c-.247-.126-.562-.206-1.076-.248-.523-.043-1.19-.043-2.135-.043H8.164L8.165 4z"/></symbol>
  <symbol id="3a5c87" viewBox="0 0 20 20"><path d="M2.669 11.333V8.667c0-.922 0-1.655.048-2.244.048-.597.15-1.106.387-1.571l.155-.276a4 4 0 0 1 1.593-1.472l.177-.083c.418-.179.872-.263 1.395-.305.589-.048 1.32-.048 2.243-.048h.5a.665.665 0 0 1 0 1.33h-.5c-.944 0-1.613 0-2.135.043-.386.032-.66.085-.876.162l-.2.086a2.67 2.67 0 0 0-1.064.982l-.102.184c-.126.247-.206.562-.248 1.076-.043.523-.043 1.192-.043 2.136v2.666c0 .944 0 1.613.043 2.136.042.514.122.829.248 1.076l.102.184c.257.418.624.758 1.064.982l.2.086c.217.077.49.13.876.161.522.043 1.19.044 2.135.044h2.667c.944 0 1.612-.001 2.135-.044.514-.042.829-.121 1.076-.247l.184-.104c.418-.256.759-.623.983-1.062l.086-.2c.077-.217.13-.49.16-.876.043-.523.044-1.192.044-2.136v-.5a.665.665 0 0 1 1.33 0v.5c0 .922.001 1.655-.047 2.244-.043.522-.127.977-.306 1.395l-.083.176a4 4 0 0 1-1.471 1.593l-.276.154c-.466.238-.975.34-1.572.39-.59.047-1.321.047-2.243.047H8.667c-.923 0-1.654 0-2.243-.048-.523-.043-.977-.126-1.395-.305l-.177-.084a4 4 0 0 1-1.593-1.471l-.155-.276c-.237-.465-.339-.974-.387-1.57-.049-.59-.048-1.322-.048-2.245m10.796-8.22a2.43 2.43 0 0 1 3.255.167l.167.185c.727.892.727 2.18 0 3.071l-.168.185-5.046 5.048a4 4 0 0 1-1.945 1.072l-.317.058-1.817.26a.665.665 0 0 1-.752-.753l.26-1.816.058-.319a4 4 0 0 1 1.072-1.944L13.28 3.28zm2.314 1.108a1.103 1.103 0 0 0-1.476-.076l-.084.076-5.046 5.048a2.67 2.67 0 0 0-.716 1.296l-.04.212-.134.939.94-.134.211-.039a2.67 2.67 0 0 0 1.298-.716L15.78 5.78l.076-.084c.33-.404.33-.988 0-1.392z"/></symbol>
  <symbol id="ac6d36" viewBox="0 0 20 20"><path d="M14.086 8.75a5.335 5.335 0 1 0-10.67 0 5.335 5.335 0 0 0 10.67 0m1.33 0a6.64 6.64 0 0 1-1.512 4.225l.066.055 3 3 .086.104a.666.666 0 0 1-.922.922l-.104-.085-3-3-.055-.068a6.665 6.665 0 1 1 2.44-5.153"/></symbol>
  <symbol id="003104" viewBox="0 0 20 20"><path d="M16.835 10c0-3.51-3.024-6.418-6.835-6.418S3.165 6.49 3.165 10c0 1.454.514 2.797 1.388 3.877.122.151.172.35.136.54-.095.508-.23 1.003-.384 1.487a13 13 0 0 0 1.823-.376l.126-.023a.67.67 0 0 1 .37.077 7.14 7.14 0 0 0 3.376.837c3.811 0 6.835-2.91 6.835-6.42m1.33 0c0 4.314-3.692 7.749-8.165 7.749a8.5 8.5 0 0 1-3.766-.873c-.92.242-1.865.393-2.86.455a.665.665 0 0 1-.661-.903l.207-.565c.162-.468.3-.933.402-1.402A7.45 7.45 0 0 1 1.835 10c0-4.315 3.692-7.748 8.165-7.748S18.165 5.685 18.165 10"/></symbol>
  <symbol id="b140e7" viewBox="0 0 20 20"><path d="M7.53 3.78a.666.666 0 0 1 .836-.086l.105.085 5.75 5.75c.26.26.26.682 0 .942l-5.75 5.75a.666.666 0 0 1-.942-.942L12.81 10l-5.28-5.28-.085-.104a.666.666 0 0 1 .085-.837"/></symbol>
  <symbol id="6b0d8c" viewBox="0 0 20 20"><path d="M10 2.125a7.875 7.875 0 1 1 0 15.75 7.875 7.875 0 0 1 0-15.75m-2.113 8.5c.056 1.691.338 3.188.753 4.28.233.614.495 1.068.755 1.358s.465.362.605.362.346-.073.605-.362c.26-.29.522-.744.755-1.358.415-1.092.697-2.589.753-4.28zm-4.482 0a6.63 6.63 0 0 0 4.493 5.657 7 7 0 0 1-.427-.933c-.477-1.257-.777-2.91-.834-4.724zm9.958 0c-.057 1.814-.357 3.467-.834 4.724a7 7 0 0 1-.428.933 6.63 6.63 0 0 0 4.494-5.657zm-1.262-6.908c.157.285.301.6.428.934.477 1.257.777 2.91.834 4.724h3.232A6.63 6.63 0 0 0 12.1 3.717M10 3.375c-.14 0-.346.073-.605.362-.26.29-.522.744-.755 1.358-.415 1.092-.697 2.589-.753 4.28h4.226c-.056-1.691-.338-3.188-.753-4.28-.233-.614-.495-1.068-.755-1.358s-.465-.362-.605-.362m-2.102.342a6.63 6.63 0 0 0-4.493 5.658h3.232c.057-1.814.357-3.467.834-4.724q.191-.504.427-.934"/></symbol>
  <symbol id="a4763e" viewBox="0 0 20 20"><path d="M12.498 6.909a.665.665 0 0 1 1.088.766L9.627 13.3a.665.665 0 0 1-.982.117l-.054-.053-2.083-2.292-.08-.107a.666.666 0 0 1 .964-.877l.1.09 1.525 1.676z"/><path fill-rule="evenodd" d="M10.333 2.085a7.915 7.915 0 1 1 0 15.83 7.915 7.915 0 0 1 0-15.83m0 1.33a6.585 6.585 0 1 0 0 13.17 6.585 6.585 0 0 0 0-13.17" clip-rule="evenodd"/></symbol>
  <symbol id="ce3544" viewBox="0 0 20 20"><path d="M12.668 10.667c0-.71 0-1.204-.031-1.588a2.4 2.4 0 0 0-.113-.615l-.055-.13a1.84 1.84 0 0 0-.676-.731l-.127-.072c-.158-.08-.37-.137-.745-.168-.384-.031-.877-.031-1.588-.031H6.5c-.711 0-1.204 0-1.588.031a2.4 2.4 0 0 0-.615.113l-.13.055a1.84 1.84 0 0 0-.731.676l-.07.127c-.081.158-.138.37-.169.745-.031.384-.032.877-.032 1.588V13.5c0 .711 0 1.204.032 1.588.031.376.088.587.168.745l.07.126c.177.288.43.522.732.676l.13.056c.144.052.333.089.615.112.384.031.877.032 1.588.032h2.833c.71 0 1.204 0 1.588-.032.376-.031.587-.088.745-.168l.127-.07c.287-.177.522-.43.676-.732l.055-.13c.052-.144.09-.333.113-.615.031-.384.031-.877.031-1.588zm1.33 1.998c.455-.002.803-.005 1.09-.028.376-.031.587-.088.745-.168l.126-.071c.288-.177.522-.43.676-.732l.056-.13a2.4 2.4 0 0 0 .112-.615c.031-.384.032-.877.032-1.588V6.5c0-.711 0-1.204-.032-1.588a2.4 2.4 0 0 0-.112-.615l-.056-.13a1.84 1.84 0 0 0-.676-.731l-.126-.07c-.158-.081-.37-.138-.745-.169-.384-.031-.877-.032-1.588-.032h-2.833c-.71 0-1.204.001-1.588.032-.282.023-.471.06-.615.112l-.13.056a1.84 1.84 0 0 0-.731.676l-.072.126c-.08.158-.137.37-.168.745-.023.287-.027.635-.029 1.09h1.999c.689 0 1.246 0 1.696.036.458.038.865.117 1.242.309l.217.122c.496.304.9.74 1.165 1.26l.067.143c.144.337.21.698.242 1.099.037.45.036 1.007.036 1.696zm4.167-3.332c0 .689 0 1.246-.036 1.696-.033.401-.098.762-.242 1.099l-.067.143c-.265.52-.67.956-1.165 1.26l-.219.122c-.376.192-.782.271-1.24.309-.337.027-.734.031-1.2.033-.003.467-.007.864-.034 1.201-.033.401-.098.762-.242 1.098l-.067.142c-.265.522-.669.958-1.165 1.262l-.217.122c-.377.192-.784.271-1.242.309-.45.037-1.007.036-1.696.036H6.5c-.69 0-1.246 0-1.696-.036-.4-.033-.762-.098-1.098-.242l-.143-.067a3.17 3.17 0 0 1-1.261-1.165l-.122-.219c-.192-.376-.271-.782-.309-1.24-.037-.45-.036-1.007-.036-1.696v-2.833c0-.689 0-1.246.036-1.696.038-.458.117-.865.309-1.242l.122-.217c.304-.496.74-.9 1.261-1.165l.143-.067c.336-.144.697-.21 1.098-.242.337-.027.733-.032 1.2-.034.002-.467.007-.863.034-1.2.037-.458.117-.864.309-1.24l.122-.22c.304-.495.74-.899 1.26-1.164l.143-.067c.337-.144.698-.21 1.099-.242.45-.037 1.007-.036 1.696-.036H13.5c.69 0 1.246 0 1.696.036.458.038.864.117 1.24.309l.22.122c.495.304.899.74 1.164 1.261l.067.143c.144.336.21.697.242 1.098.037.45.036 1.007.036 1.696z"/></symbol>
  <symbol id="6d87e1" viewBox="0 0 20 20"><path d="M11.331 3.568a3.61 3.61 0 0 1 4.973.128l.128.135a3.61 3.61 0 0 1 0 4.838l-.128.135-6.292 6.29c-.324.324-.558.561-.79.752l-.235.177q-.309.21-.65.36l-.23.093c-.181.066-.369.114-.585.159l-.765.135-2.394.399c-.142.024-.294.05-.422.06-.1.007-.233.01-.378-.026l-.149-.049a1.1 1.1 0 0 1-.522-.474l-.046-.094a1.1 1.1 0 0 1-.074-.526c.01-.129.035-.28.06-.423l.398-2.394.134-.764a4 4 0 0 1 .16-.586l.093-.23q.15-.342.36-.65l.176-.235c.19-.232.429-.466.752-.79l6.291-6.292zm-5.485 7.36c-.35.35-.533.535-.66.688l-.11.147a2.7 2.7 0 0 0-.24.433l-.062.155c-.04.11-.072.225-.106.394l-.127.717-.398 2.393-.001.002h.003l2.393-.399.717-.126c.169-.034.284-.065.395-.105l.153-.062q.228-.1.433-.241l.148-.11c.153-.126.338-.31.687-.66l4.988-4.988-3.226-3.226zm9.517-6.291a2.28 2.28 0 0 0-3.053-.157l-.173.157-.364.363L15 8.226l.363-.363.157-.174a2.28 2.28 0 0 0 0-2.878z"/></symbol>
  <symbol id="630ca2" viewBox="0 0 20 20"><path d="M2.668 12.666V12.5a.665.665 0 0 1 1.33 0v.166c0 .711.001 1.205.033 1.588.03.376.087.587.167.745l.07.127c.177.288.43.522.732.676l.13.056c.144.051.333.089.615.112.384.031.877.031 1.588.031h5.333c.711 0 1.205 0 1.588-.031.376-.03.587-.088.745-.168l.127-.071c.288-.176.522-.43.676-.732l.056-.13c.051-.143.089-.333.112-.615.031-.383.031-.877.031-1.588V12.5a.665.665 0 0 1 1.33 0v.166c0 .69 0 1.246-.036 1.697-.033.4-.098.762-.242 1.098l-.066.143c-.266.52-.67.957-1.165 1.26l-.218.123c-.377.192-.783.27-1.241.308-.45.037-1.008.036-1.697.036H7.333c-.689 0-1.246.001-1.696-.036-.4-.033-.761-.097-1.098-.241l-.142-.067a3.17 3.17 0 0 1-1.262-1.165l-.122-.218c-.192-.377-.271-.783-.309-1.241-.036-.45-.036-1.008-.036-1.697m6.667-.166V4.94L7.137 7.137a.665.665 0 0 1-.94-.94L9.53 2.863l.101-.083a.666.666 0 0 1 .839.083l3.334 3.334a.666.666 0 0 1-.941.94L10.665 4.94v7.56a.666.666 0 0 1-1.33 0"/></symbol>
  <symbol id="f6d0e2" viewBox="0 0 20 20"><path d="M15.498 8.502a1.498 1.498 0 1 1 0 2.996 1.498 1.498 0 0 1 0-2.996M4.498 8.502a1.499 1.499 0 1 1 0 2.998 1.499 1.499 0 0 1 0-2.998M10 8.502a1.498 1.498 0 1 1 0 2.996 1.498 1.498 0 0 1 0-2.996"></path></symbol>
  <symbol id="38e54b" viewBox="0 0 20 20"><path d="m11.666 12.669.135.013a.665.665 0 0 1 0 1.303l-.135.014H3.333a.665.665 0 0 1 0-1.33zm5-6.667.135.013a.665.665 0 0 1 0 1.303l-.135.014H3.333a.665.665 0 0 1 0-1.33z"/></symbol>
  <symbol id="85f94b" viewBox="0 0 20 20"><path d="M14.255 4.755a.7.7 0 0 1 .99.99L10.99 10l4.255 4.255.09.11a.7.7 0 0 1-.97.97l-.11-.09L10 10.99l-4.255 4.255a.7.7 0 0 1-.99-.99L9.01 10 4.755 5.745l-.09-.11a.7.7 0 0 1 .97-.97l.11.09L10 9.01z"/></symbol>
  <symbol id="settings" viewBox="0 0 20 20"><path fill-rule="evenodd" d="M11.49 3.17c-.38-1.56-2.6-1.56-2.98 0a1.532 1.532 0 0 1-2.286.948c-1.372-.836-2.942.734-2.106 2.106.54.886.061 2.042-.947 2.287-1.561.379-1.561 2.6 0 2.978a1.532 1.532 0 0 1 .947 2.287c-.836 1.372.734 2.942 2.106 2.106a1.532 1.532 0 0 1 2.287.947c.379 1.561 2.6 1.561 2.978 0a1.533 1.533 0 0 1 2.287-.947c1.372.836 2.942-.734 2.106-2.106a1.533 1.533 0 0 1 .947-2.287c1.561-.379 1.561-2.6 0-2.978a1.532 1.532 0 0 1-.947-2.287c.836-1.372-.734-2.942-2.106-2.106a1.532 1.532 0 0 1-2.287-.947zM10 13a3 3 0 1 0 0-6 3 3 0 0 0 0 6z" clip-rule="evenodd"/></symbol>
</svg>

